<svg width="40" height="40" viewBox="0 0 40 40" fill="none" xmlns="http://www.w3.org/2000/svg">
<g clip-path="url(#clip0_18052_1831)">
<path d="M22.3109 24.2749L18.4875 22.0648C18.4281 22.0305 18.3607 22.0125 18.2922 22.0125C18.2236 22.0125 18.1562 22.0305 18.0969 22.0648C18.0375 22.0991 17.9882 22.1484 17.9539 22.2078C17.9196 22.2671 17.9016 22.3345 17.9016 22.4031V26.823C17.9016 26.8916 17.9196 26.9589 17.9539 27.0183C17.9882 27.0777 18.0375 27.127 18.0969 27.1613C18.1562 27.1956 18.2236 27.2136 18.2922 27.2136C18.3607 27.2136 18.4281 27.1956 18.4875 27.1613L22.3109 24.9511C22.3702 24.9168 22.4194 24.8675 22.4537 24.8082C22.4879 24.7488 22.5059 24.6815 22.5059 24.613C22.5059 24.5445 22.4879 24.4772 22.4537 24.4179C22.4194 24.3586 22.3702 24.3093 22.3109 24.2749ZM18.6828 26.146V23.08L21.3348 24.6132L18.6828 26.146Z" fill="#B7B7B7"/>
<path d="M28.8281 16.1778H15.2578L28.6223 13.8184C28.9282 13.7644 29.2002 13.5911 29.3784 13.3366C29.5566 13.0822 29.6265 12.7673 29.5726 12.4614L29.3129 10.984C29.2164 10.3614 28.573 9.91098 27.9551 10.0336L10.9683 13.0321C10.6626 13.0861 10.3907 13.2593 10.2125 13.5136C10.0344 13.7679 9.96437 14.0825 10.018 14.3883L10.4086 16.6012V28.8145C10.4086 29.1253 10.532 29.4234 10.7518 29.6431C10.9716 29.8629 11.2697 29.9864 11.5805 29.9864H28.8281C29.1389 29.9864 29.437 29.8629 29.6568 29.6431C29.8765 29.4234 30 29.1253 30 28.8145V17.3497C30 17.0389 29.8765 16.7408 29.6568 16.521C29.437 16.3012 29.1389 16.1778 28.8281 16.1778ZM29.2187 17.3497V19.2399H26.1918L27.0211 16.959H28.8281C28.9317 16.959 29.0311 17.0002 29.1043 17.0734C29.1776 17.1467 29.2187 17.2461 29.2187 17.3497ZM11.189 19.2399V16.959H15.1371L14.3078 19.2399H11.189ZM15.9683 16.959H18.8199L17.9918 19.2399H15.1402L15.9683 16.959ZM19.6523 16.959H22.5039L21.6762 19.2399H18.8246L19.6523 16.959ZM23.3367 16.959H26.1883L25.3605 19.2399H22.509L23.3367 16.959ZM22.1406 14.1692L19.4844 14.6379L18.625 12.4743L21.2832 12.0055L22.1406 14.1692ZM22.0687 11.8645L24.7933 11.3832L25.6527 13.5481L22.9277 14.029L22.0687 11.8645ZM18.6973 14.779L16.041 15.2477L15.1816 13.0829L17.8379 12.6141L18.6973 14.779ZM28.0906 10.8028C28.1133 10.7989 28.1363 10.7969 28.1594 10.7969C28.2511 10.7971 28.3398 10.8295 28.41 10.8885C28.4802 10.9475 28.5274 11.0293 28.5433 11.1196L28.8035 12.5965C28.8124 12.6471 28.8113 12.6989 28.8003 12.749C28.7892 12.7991 28.7683 12.8465 28.7389 12.8885C28.7095 12.9306 28.6721 12.9664 28.6288 12.994C28.5855 13.0216 28.5372 13.0404 28.4867 13.0493L26.4367 13.4118L25.5773 11.2469L28.0906 10.8028ZM11.1039 13.8024L14.3965 13.2204L15.2558 15.3852L11.1152 16.1157L10.7871 14.254C10.7694 14.1521 10.7928 14.0473 10.8522 13.9627C10.9116 13.8781 11.0021 13.8204 11.1039 13.8024ZM28.8281 29.2051H11.5797C11.4761 29.2051 11.3767 29.164 11.3035 29.0907C11.2302 29.0175 11.189 28.9181 11.189 28.8145V20.0211H29.2187V28.8145C29.2187 28.9181 29.1776 29.0175 29.1043 29.0907C29.0311 29.164 28.9317 29.2051 28.8281 29.2051Z" fill="#B7B7B7"/>
<path d="M12.9168 17.8229C12.8645 17.7706 12.7984 17.7342 12.7262 17.718C12.654 17.7018 12.5787 17.7064 12.509 17.7313C12.4394 17.7562 12.3782 17.8004 12.3327 17.8587C12.2872 17.9171 12.2591 17.9871 12.2519 18.0607C12.2446 18.1344 12.2584 18.2085 12.2916 18.2746C12.3249 18.3407 12.3762 18.396 12.4396 18.4341C12.5031 18.4721 12.576 18.4914 12.65 18.4896C12.7239 18.4879 12.7959 18.4651 12.8574 18.4241C12.905 18.3916 12.9448 18.3491 12.9742 18.2995C13.0035 18.25 13.0217 18.1946 13.0273 18.1373C13.033 18.08 13.026 18.0222 13.0069 17.9678C12.9878 17.9135 12.9571 17.864 12.9168 17.8229Z" fill="#B7B7B7"/>
<path d="M11.9863 14.8892C11.9961 14.9128 12.008 14.9354 12.0219 14.9568C12.0543 15.0045 12.0967 15.0445 12.1463 15.0739C12.1958 15.1033 12.2512 15.1215 12.3086 15.1272C12.3659 15.1329 12.4238 15.1259 12.4782 15.1067C12.5325 15.0875 12.582 15.0566 12.6231 15.0162C12.893 14.7428 12.6481 14.2842 12.2715 14.3568C12.215 14.3684 12.1617 14.3922 12.1155 14.4266C12.0693 14.4611 12.0312 14.5053 12.004 14.5561C11.9767 14.6069 11.9611 14.6631 11.958 14.7207C11.955 14.7783 11.9646 14.8358 11.9863 14.8892Z" fill="#B7B7B7"/>
</g>
<defs>
<clipPath id="clip0_18052_1831">
<rect width="20" height="20" fill="white" transform="translate(10 10)"/>
</clipPath>
</defs>
</svg>
