<svg width="250" height="352" viewBox="0 0 250 352" fill="none" xmlns="http://www.w3.org/2000/svg">
<rect width="250" height="351" fill="#EAEBED"/>
<g clip-path="url(#clip0_18128_1123)">
<path d="M128.5 162H128.51" stroke="#ACADB9" stroke-width="2" stroke-linecap="round" stroke-linejoin="round"/>
<path d="M126.5 175H119.5C118.704 175 117.941 174.684 117.379 174.121C116.816 173.559 116.5 172.796 116.5 172V160C116.5 159.204 116.816 158.441 117.379 157.879C117.941 157.316 118.704 157 119.5 157H131.5C132.296 157 133.059 157.316 133.621 157.879C134.184 158.441 134.5 159.204 134.5 160V167" stroke="#ACADB9" stroke-width="2" stroke-linecap="round" stroke-linejoin="round"/>
<path d="M116.5 170L121.5 165C122.428 164.107 123.572 164.107 124.5 165L127.5 168" stroke="#ACADB9" stroke-width="2" stroke-linecap="round" stroke-linejoin="round"/>
<path d="M127.5 168L128.5 167C129.428 166.107 130.572 166.107 131.5 167" stroke="#ACADB9" stroke-width="2" stroke-linecap="round" stroke-linejoin="round"/>
<path d="M135.5 176L130.5 171" stroke="#ACADB9" stroke-width="2" stroke-linecap="round" stroke-linejoin="round"/>
<path d="M130.5 176L135.5 171" stroke="#ACADB9" stroke-width="2" stroke-linecap="round" stroke-linejoin="round"/>
</g>
<path d="M105.003 185.273V194H103.793L99.3565 187.599H99.2756V194H97.9588V185.273H99.1776L103.618 191.682H103.699V185.273H105.003ZM109.578 194.132C108.965 194.132 108.429 193.991 107.972 193.71C107.515 193.429 107.159 193.036 106.907 192.53C106.654 192.024 106.527 191.433 106.527 190.757C106.527 190.078 106.654 189.484 106.907 188.976C107.159 188.467 107.515 188.072 107.972 187.791C108.429 187.51 108.965 187.369 109.578 187.369C110.192 187.369 110.728 187.51 111.185 187.791C111.642 188.072 111.998 188.467 112.25 188.976C112.503 189.484 112.63 190.078 112.63 190.757C112.63 191.433 112.503 192.024 112.25 192.53C111.998 193.036 111.642 193.429 111.185 193.71C110.728 193.991 110.192 194.132 109.578 194.132ZM109.583 193.062C109.98 193.062 110.31 192.957 110.571 192.747C110.833 192.537 111.026 192.257 111.151 191.908C111.279 191.558 111.343 191.173 111.343 190.753C111.343 190.335 111.279 189.952 111.151 189.602C111.026 189.25 110.833 188.967 110.571 188.754C110.31 188.541 109.98 188.435 109.583 188.435C109.182 188.435 108.85 188.541 108.586 188.754C108.324 188.967 108.13 189.25 108.002 189.602C107.877 189.952 107.814 190.335 107.814 190.753C107.814 191.173 107.877 191.558 108.002 191.908C108.13 192.257 108.324 192.537 108.586 192.747C108.85 192.957 109.182 193.062 109.583 193.062ZM117.33 194V185.273H120.441C121.12 185.273 121.682 185.396 122.128 185.643C122.574 185.891 122.908 186.229 123.13 186.658C123.351 187.084 123.462 187.564 123.462 188.098C123.462 188.635 123.35 189.118 123.125 189.547C122.904 189.973 122.569 190.311 122.12 190.561C121.674 190.808 121.113 190.932 120.436 190.932H118.297V189.815H120.317C120.746 189.815 121.094 189.741 121.361 189.594C121.628 189.443 121.824 189.239 121.949 188.98C122.074 188.722 122.137 188.428 122.137 188.098C122.137 187.768 122.074 187.476 121.949 187.22C121.824 186.964 121.627 186.764 121.357 186.619C121.09 186.474 120.738 186.402 120.3 186.402H118.647V194H117.33ZM127.578 194.132C126.965 194.132 126.429 193.991 125.972 193.71C125.515 193.429 125.159 193.036 124.907 192.53C124.654 192.024 124.527 191.433 124.527 190.757C124.527 190.078 124.654 189.484 124.907 188.976C125.159 188.467 125.515 188.072 125.972 187.791C126.429 187.51 126.965 187.369 127.578 187.369C128.192 187.369 128.728 187.51 129.185 187.791C129.642 188.072 129.998 188.467 130.25 188.976C130.503 189.484 130.63 190.078 130.63 190.757C130.63 191.433 130.503 192.024 130.25 192.53C129.998 193.036 129.642 193.429 129.185 193.71C128.728 193.991 128.192 194.132 127.578 194.132ZM127.583 193.062C127.98 193.062 128.31 192.957 128.571 192.747C128.833 192.537 129.026 192.257 129.151 191.908C129.279 191.558 129.343 191.173 129.343 190.753C129.343 190.335 129.279 189.952 129.151 189.602C129.026 189.25 128.833 188.967 128.571 188.754C128.31 188.541 127.98 188.435 127.583 188.435C127.182 188.435 126.85 188.541 126.586 188.754C126.324 188.967 126.13 189.25 126.002 189.602C125.877 189.952 125.814 190.335 125.814 190.753C125.814 191.173 125.877 191.558 126.002 191.908C126.13 192.257 126.324 192.537 126.586 192.747C126.85 192.957 127.182 193.062 127.583 193.062ZM136.957 189.053L135.802 189.257C135.754 189.109 135.677 188.969 135.572 188.835C135.469 188.702 135.33 188.592 135.154 188.507C134.978 188.422 134.758 188.379 134.494 188.379C134.133 188.379 133.832 188.46 133.59 188.622C133.349 188.781 133.228 188.987 133.228 189.24C133.228 189.459 133.309 189.635 133.471 189.768C133.633 189.902 133.894 190.011 134.255 190.097L135.295 190.335C135.897 190.474 136.346 190.689 136.641 190.979C136.937 191.268 137.085 191.645 137.085 192.108C137.085 192.5 136.971 192.849 136.744 193.156C136.519 193.46 136.205 193.699 135.802 193.872C135.401 194.045 134.937 194.132 134.408 194.132C133.675 194.132 133.077 193.976 132.614 193.663C132.151 193.348 131.867 192.901 131.762 192.321L132.994 192.134C133.07 192.455 133.228 192.697 133.467 192.862C133.705 193.024 134.016 193.105 134.4 193.105C134.817 193.105 135.151 193.018 135.401 192.845C135.651 192.669 135.776 192.455 135.776 192.202C135.776 191.997 135.7 191.825 135.546 191.686C135.396 191.547 135.164 191.442 134.852 191.371L133.744 191.128C133.133 190.989 132.681 190.767 132.388 190.463C132.099 190.159 131.954 189.774 131.954 189.308C131.954 188.922 132.062 188.584 132.278 188.294C132.494 188.004 132.792 187.778 133.173 187.616C133.553 187.452 133.989 187.369 134.481 187.369C135.188 187.369 135.745 187.523 136.151 187.83C136.558 188.134 136.826 188.541 136.957 189.053ZM141.541 187.455V188.477H137.966V187.455H141.541ZM138.924 185.886H140.199V192.078C140.199 192.325 140.235 192.511 140.309 192.636C140.383 192.759 140.478 192.842 140.595 192.888C140.714 192.93 140.843 192.952 140.983 192.952C141.085 192.952 141.174 192.945 141.251 192.93C141.328 192.916 141.387 192.905 141.43 192.896L141.66 193.949C141.586 193.977 141.481 194.006 141.345 194.034C141.208 194.065 141.038 194.082 140.833 194.085C140.498 194.091 140.186 194.031 139.896 193.906C139.606 193.781 139.372 193.588 139.193 193.327C139.014 193.065 138.924 192.737 138.924 192.342V185.886ZM145.701 194.132C145.056 194.132 144.501 193.994 144.035 193.719C143.572 193.44 143.214 193.05 142.961 192.547C142.711 192.041 142.586 191.449 142.586 190.77C142.586 190.099 142.711 189.509 142.961 188.997C143.214 188.486 143.566 188.087 144.018 187.8C144.472 187.513 145.004 187.369 145.612 187.369C145.981 187.369 146.339 187.43 146.685 187.553C147.032 187.675 147.343 187.866 147.619 188.128C147.894 188.389 148.112 188.729 148.271 189.146C148.43 189.561 148.509 190.065 148.509 190.659V191.111H143.306V190.156H147.261C147.261 189.821 147.192 189.524 147.056 189.266C146.92 189.004 146.728 188.798 146.481 188.648C146.237 188.497 145.95 188.422 145.62 188.422C145.262 188.422 144.95 188.51 144.683 188.686C144.418 188.859 144.214 189.087 144.069 189.368C143.927 189.646 143.856 189.949 143.856 190.276V191.021C143.856 191.459 143.933 191.831 144.086 192.138C144.242 192.445 144.46 192.679 144.738 192.841C145.016 193 145.342 193.08 145.714 193.08C145.955 193.08 146.175 193.045 146.374 192.977C146.573 192.906 146.745 192.801 146.89 192.662C147.035 192.523 147.146 192.351 147.222 192.146L148.428 192.364C148.332 192.719 148.158 193.03 147.908 193.297C147.661 193.561 147.35 193.767 146.975 193.915C146.603 194.06 146.178 194.132 145.701 194.132ZM149.923 194V187.455H151.154V188.494H151.223C151.342 188.142 151.552 187.865 151.853 187.663C152.157 187.459 152.501 187.357 152.885 187.357C152.964 187.357 153.058 187.359 153.166 187.365C153.277 187.371 153.363 187.378 153.426 187.386V188.605C153.375 188.591 153.284 188.575 153.153 188.558C153.022 188.538 152.892 188.528 152.761 188.528C152.46 188.528 152.191 188.592 151.956 188.72C151.723 188.845 151.538 189.02 151.402 189.244C151.265 189.466 151.197 189.719 151.197 190.003V194H149.923Z" fill="#ACADB9"/>
<defs>
<clipPath id="clip0_18128_1123">
<rect width="24" height="24" fill="white" transform="translate(113.5 154)"/>
</clipPath>
</defs>
</svg>
